HIERARCHY
ROOT root
{
	OFFSET	0	13.1	24.9
	CHANNELS 6  Xposition Yposition Zposition Xrotation Yrotation Zrotation
	JOINT spine_1
	{
		OFFSET	0	9.99999	0
		CHANNELS 3  Xrotation Yrotation Zrotation
		JOINT spine_2
		{
			OFFSET	0	112	-10
			CHANNELS 3  Xrotation Yrotation Zrotation
			JOINT spine_3
			{
				OFFSET	0	206.5	19.3
				CHANNELS 3  Xrotation Yrotation Zrotation
				JOINT spine_4
				{
					OFFSET	0	110.4	14.6
					CHANNELS 3  Xrotation Yrotation Zrotation
					JOINT neck_1
					{
						OFFSET	0	71.8	-50.3
						CHANNELS 3  Xrotation Yrotation Zrotation
						JOINT neck_2
						{
							OFFSET	0	86.2	-25.8
							CHANNELS 3  Xrotation Yrotation Zrotation
							JOINT head_ee
							{
								OFFSET	0	179.8	-8.7
								CHANNELS 3  Xrotation Yrotation Zrotation
								End Site
								{
									OFFSET	1	0	0
								}
							}
						}
					}
					JOINT left_clavicle
					{
						OFFSET	-43.2	22.4	-70.8
						CHANNELS 3  Xrotation Yrotation Zrotation
						JOINT left_shoulder
						{
							OFFSET	-93.9	-5.79999	48.7
							CHANNELS 3  Xrotation Yrotation Zrotation
							JOINT left_elbow
							{
								OFFSET	-291.4	-30.8	15.2
								CHANNELS 3  Xrotation Yrotation Zrotation
								JOINT left_lowarm_twist
								{
									OFFSET	-110.7	-3.89999	13.6
									CHANNELS 3  Xrotation Yrotation Zrotation
									JOINT left_hand
									{
										OFFSET	-110.7	-3.89999	13.6
										CHANNELS 3  Xrotation Yrotation Zrotation
										JOINT left_ee
										{
											OFFSET	-80.8	-5.10001	12.1
											CHANNELS 3  Xrotation Yrotation Zrotation
											End Site
											{
												OFFSET	1	0	0
											}
										}
									}
								}
							}
						}
					}
					JOINT right_clavicle
					{
						OFFSET	43.2	22.4	-70.8
						CHANNELS 3  Xrotation Yrotation Zrotation
						JOINT right_shoulder
						{
							OFFSET	93.9	-5.79999	48.7
							CHANNELS 3  Xrotation Yrotation Zrotation
							JOINT right_elbow
							{
								OFFSET	291.4	-30.8	15.2
								CHANNELS 3  Xrotation Yrotation Zrotation
								JOINT right_lowarm_twist
								{
									OFFSET	110.7	-3.89999	13.6
									CHANNELS 3  Xrotation Yrotation Zrotation
									JOINT right_hand
									{
										OFFSET	110.7	-3.89999	13.6
										CHANNELS 3  Xrotation Yrotation Zrotation
										JOINT right_ee
										{
											OFFSET	80.8	-5.10001	12.1
											CHANNELS 3  Xrotation Yrotation Zrotation
											End Site
											{
												OFFSET	1	0	0
											}
										}
									}
								}
							}
						}
					}
				}
			}
		}
	}
	JOINT left_hip
	{
		OFFSET	-82.8	-127.5	0.300001
		CHANNELS 3  Xrotation Yrotation Zrotation
		JOINT left_knee
		{
			OFFSET	-28.2	-396.7	2.2
			CHANNELS 3  Xrotation Yrotation Zrotation
			JOINT left_ankle
			{
				OFFSET	-11.7	-411.3	35.4
				CHANNELS 3  Xrotation Yrotation Zrotation
				JOINT left_toes
				{
					OFFSET	0	-60	-88.6
					CHANNELS 3  Xrotation Yrotation Zrotation
					JOINT left_foot_ee
					{
						OFFSET	-22.5	-16.5	-42.2
						CHANNELS 3  Xrotation Yrotation Zrotation
						End Site
						{
							OFFSET	1	0	0
						}
					}
				}
			}
		}
	}
	JOINT right_hip
	{
		OFFSET	82.8	-127.5	0.300001
		CHANNELS 3  Xrotation Yrotation Zrotation
		JOINT right_knee
		{
			OFFSET	28.2	-396.7	2.2
			CHANNELS 3  Xrotation Yrotation Zrotation
			JOINT right_ankle
			{
				OFFSET	11.7	-411.3	35.4
				CHANNELS 3  Xrotation Yrotation Zrotation
				JOINT right_toes
				{
					OFFSET	0	-60	-88.6
					CHANNELS 3  Xrotation Yrotation Zrotation
					JOINT right_foot_ee
					{
						OFFSET	22.5	-16.5	-42.2
						CHANNELS 3  Xrotation Yrotation Zrotation
						End Site
						{
							OFFSET	1	0	0
						}
					}
				}
			}
		}
	}
}
MOTION
Frames: 7
Frame Time: 0.02
3496.98132209 731.622 -1523.59572493 64.6077130882 78.9164329945 -62.9055380696 -1.84064 0.0421215 -0.646024 -1.84041 0.0831435 -0.642035 -1.84118 0.235731 -0.602954 -1.84166 0.137549 -0.632615 -11.8091 0.207331 2.92654 -11.7859 -1.50148 2.87439 -0.0 0.0 -0.0 -0.975724 12.2888 -0.177873 -4.40527 -36.8327 69.9024 0.937756 -24.9162 0.20718 -2.54347 -0.096532 0.310408 1.33151 -1.99399 8.11831 -0.0 0.0 -0.0 3.51886 4.95409 -6.47218 13.1654 16.0735 -73.4114 0.462193 12.8962 -0.0522364 3.45452 -0.108841 0.427752 0.195237 -23.2039 -10.4123 0.0 0.0 0.0 13.9103 6.23626 -9.24619 -44.9487 -0.811231 6.67671 40.4566 17.8539 -5.02373 -13.9684 0.0 0.0 -0.0 0.0 -0.0 -17.0866 14.6638 -9.35288 -5.63029 -0.190528 -0.842732 39.5351 5.66189 4.90162 -22.5934 0.0 0.0 0.0 0.0 0.0 
3499.05363698 731.622 -1526.73499239 54.764529302 77.7238277942 -52.8558281101 -1.84064 0.0421215 -0.646024 -1.84041 0.0831435 -0.642035 -1.84118 0.235731 -0.602954 -1.84166 0.137549 -0.632615 -11.8091 0.207331 2.92654 -11.7859 -1.50148 2.87439 -0.0 0.0 -0.0 -0.975724 12.2888 -0.177873 -4.40527 -36.8327 69.9024 0.937756 -24.9162 0.20718 -2.54347 -0.096532 0.310408 1.33151 -1.99399 8.11831 -0.0 0.0 -0.0 3.51886 4.95409 -6.47218 13.1654 16.0735 -73.4114 0.462193 12.8962 -0.0522364 3.45452 -0.108841 0.427752 0.195237 -23.2039 -10.4123 0.0 0.0 0.0 13.9103 6.23626 -9.24619 -44.9487 -0.811231 6.67671 40.4566 17.8539 -5.02373 -13.9684 0.0 0.0 -0.0 0.0 -0.0 -17.0866 14.6638 -9.35288 -5.63029 -0.190528 -0.842732 39.5351 5.66189 4.90162 -22.5934 0.0 0.0 0.0 0.0 0.0 
3486.41496529 730.871 -1521.81267319 69.0270632291 79.0786448302 -67.3027654962 -1.86009 0.0114841 -0.685809 -1.85983 0.0550996 -0.683688 -1.86028 0.218793 -0.650075 -1.86086 0.113382 -0.676469 -12.5854 -0.225371 2.81211 -12.5657 -2.21254 2.62789 -0.0 0.0 -0.0 -1.52342 13.0306 -0.980081 -5.74532 -37.2142 71.3152 0.829738 -22.3439 0.163873 -2.64292 -0.100586 0.322458 1.02438 0.952769 7.24453 -0.0 0.0 -0.0 3.88386 5.90585 -7.14624 15.3618 15.6444 -72.699 0.537082 14.8988 -0.0702264 3.97659 -0.123037 0.49293 0.42388 -20.8305 -10.9252 0.0 0.0 0.0 15.8683 5.63417 -8.5504 -45.3915 -0.844898 6.73594 36.1785 20.4447 -4.66961 -13.5784 0.0 0.0 -0.0 0.0 -0.0 -19.4724 14.3115 -9.26519 -2.26906 -0.0867533 -0.337395 39.643 2.90618 4.87282 -22.326 0.0 0.0 0.0 0.0 0.0 
3486.2976246 730.871 -1521.59268455 69.7229367324 79.129062755 -68.0114145447 -1.86009 0.0114841 -0.685809 -1.85983 0.0550996 -0.683688 -1.86028 0.218793 -0.650075 -1.86086 0.113382 -0.676469 -12.5854 -0.225371 2.81211 -12.5657 -2.21254 2.62789 -0.0 0.0 -0.0 -1.52342 13.0306 -0.980081 -5.74532 -37.2142 71.3152 0.829738 -22.3439 0.163873 -2.64292 -0.100586 0.322458 1.02438 0.952769 7.24453 -0.0 0.0 -0.0 3.88386 5.90585 -7.14624 15.3618 15.6444 -72.699 0.537082 14.8988 -0.0702264 3.97659 -0.123037 0.49293 0.42388 -20.8305 -10.9252 0.0 0.0 0.0 15.8683 5.63417 -8.5504 -45.3915 -0.844898 6.73594 36.1785 20.4447 -4.66961 -13.5784 0.0 0.0 -0.0 0.0 -0.0 -19.4724 14.3115 -9.26519 -2.26906 -0.0867533 -0.337395 39.643 2.90618 4.87282 -22.326 0.0 0.0 0.0 0.0 0.0 
3479.07950189 733.486 -1517.22275873 88.4291137588 79.1828713283 -86.9783085724 -2.18504 0.0393587 -0.714558 -2.18476 0.0847469 -0.710605 -2.18559 0.257866 -0.66757 -2.18618 0.149203 -0.699915 -13.1977 0.0492758 2.58068 -13.1804 -1.51769 2.47699 -0.0 0.0 -0.0 -0.865735 12.289 0.00597696 -7.77294 -36.9351 70.8923 0.596984 -16.4746 0.086424 -2.0545 -0.0769045 0.251066 0.989355 0.386631 6.77975 -0.0 0.0 -0.0 4.22273 7.0715 -7.7619 17.4151 17.0619 -72.0364 0.667252 18.2907 -0.107419 4.03779 -0.124662 0.500577 0.502417 -17.8684 -10.3408 0.0 0.0 0.0 16.5244 4.92311 -8.68288 -42.1574 -0.609694 6.29762 34.6572 18.964 -4.48539 -14.1836 0.0 0.0 -0.0 0.0 -0.0 -20.1318 14.8667 -9.20802 -2.43443 -0.0925522 -0.362113 38.1681 2.88769 4.74236 -23.9785 0.0 0.0 0.0 0.0 0.0 
3468.2041436 731.622 -1518.92327534 101.875704931 78.8657190116 -99.2590859967 -2.294 0.0518975 -0.826714 -2.29363 0.104396 -0.821736 -2.29482 0.305865 -0.769805 -2.2956 0.180455 -0.808447 -12.9866 -0.206817 2.45702 -12.9718 -1.93614 2.28587 -0.0 0.0 -0.0 -0.655788 12.0421 0.324081 -10.0887 -36.9124 70.8883 0.473323 -13.196 0.0547489 -1.71971 -0.0637583 0.210341 0.902912 2.01413 6.85838 -0.0 0.0 -0.0 4.50949 7.55735 -8.31972 19.262 17.6069 -71.3664 0.807438 21.8003 -0.155493 4.42461 -0.134746 0.548962 0.67518 -14.3967 -10.1521 0.0 0.0 0.0 19.3289 3.94387 -9.11712 -38.591 -0.379571 5.80003 29.128 20.1485 -3.90821 -15.4669 0.0 0.0 -0.0 0.0 -0.0 -22.4735 14.9866 -9.3744 1.21897 0.0521117 0.179792 38.3587 0.990768 4.74001 -25.1409 0.0 0.0 0.0 0.0 0.0 
3460.65590194 730.005 -1509.68468879 112.204265099 78.4561716599 -110.854476965 -2.37468 0.0957233 -0.891765 -2.37425 0.152272 -0.883868 -2.37628 0.368883 -0.817522 -2.37713 0.235147 -0.865516 -12.7998 -0.314548 2.50918 -12.7848 -2.18119 2.30748 -0.0 0.0 -0.0 -0.587651 12.0736 0.44242 -12.3691 -36.8248 71.0963 0.381137 -10.692 0.0356659 -1.57346 -0.0580906 0.192529 0.83263 3.32072 6.91384 -0.0 0.0 -0.0 4.62812 7.95902 -8.53949 20.8761 17.9986 -70.8599 0.923297 24.5778 -0.201128 4.73069 -0.142492 0.587293 0.804622 -11.8477 -10.0338 0.0 0.0 0.0 20.943 3.39819 -9.20411 -36.3148 -0.249113 5.47548 25.4279 20.8397 -3.48656 -16.2555 0.0 0.0 -0.0 0.0 -0.0 -23.9661 15.0765 -9.46938 4.16037 0.193545 0.60885 38.1671 -0.270948 4.7128 -26.0334 0.0 0.0 0.0 0.0 0.0 
